<svg 
 xmlns="http://www.w3.org/2000/svg"
 xmlns:xlink="http://www.w3.org/1999/xlink"
 width="0.347in" height="0.472in">
<path fill-rule="evenodd"  fill="rgb(255, 255, 255)"
 d="M2.838,31.923 C2.838,31.923 1.605,31.923 1.605,31.923 C1.605,31.923 1.605,33.958 1.605,33.958 C1.605,33.958 1.879,33.958 1.879,33.958 C1.879,33.958 1.879,33.099 1.879,33.099 C1.879,33.099 2.655,33.099 2.655,33.099 C2.655,33.099 3.112,33.958 3.112,33.958 C3.112,33.958 3.432,33.958 3.432,33.958 C3.432,33.958 3.021,33.099 3.021,33.099 C3.203,33.099 3.478,32.963 3.478,32.511 C3.478,32.058 3.158,31.923 2.838,31.923 ZM1.879,32.194 C1.879,32.194 2.838,32.194 2.838,32.194 C3.021,32.194 3.203,32.239 3.203,32.511 C3.203,32.692 3.066,32.827 2.838,32.827 C2.838,32.827 1.879,32.827 1.879,32.827 C1.879,32.827 1.879,32.194 1.879,32.194 ZM6.767,31.923 C6.767,31.923 5.031,31.923 5.031,31.923 C5.031,31.923 5.031,33.958 5.031,33.958 C5.031,33.958 6.812,33.958 6.812,33.958 C6.812,33.958 6.812,33.687 6.812,33.687 C6.812,33.687 5.350,33.687 5.350,33.687 C5.350,33.687 5.350,33.054 5.350,33.054 C5.350,33.054 6.081,33.054 6.081,33.054 C6.081,33.054 6.081,32.737 6.081,32.737 C6.081,32.737 5.350,32.737 5.350,32.737 C5.350,32.737 5.350,32.194 5.350,32.194 C5.350,32.194 6.767,32.194 6.767,32.194 C6.767,32.194 6.767,31.923 6.767,31.923 ZM10.147,33.596 C10.147,33.596 9.964,33.370 9.964,33.370 C9.873,33.506 9.644,33.732 9.188,33.732 C8.594,33.732 8.320,33.325 8.320,32.963 C8.320,32.420 8.731,32.149 9.096,32.149 C9.553,32.149 9.827,32.375 9.918,32.466 C9.918,32.466 10.147,32.285 10.147,32.285 C10.010,32.194 9.690,31.878 9.096,31.878 C8.502,31.878 8.000,32.330 8.000,32.963 C8.000,33.596 8.548,34.003 9.096,34.003 C9.736,34.003 9.964,33.822 10.147,33.596 ZM11.334,32.918 C11.334,33.596 11.883,34.003 12.476,34.003 C13.070,34.003 13.619,33.596 13.619,32.918 C13.619,32.285 13.070,31.878 12.476,31.878 C11.883,31.878 11.334,32.285 11.334,32.918 ZM13.299,32.918 C13.299,33.370 12.933,33.732 12.476,33.732 C12.020,33.732 11.654,33.370 11.654,32.918 C11.654,32.511 12.020,32.149 12.476,32.149 C12.933,32.149 13.299,32.511 13.299,32.918 ZM16.314,31.923 C16.314,31.923 15.080,31.923 15.080,31.923 C15.080,31.923 15.080,33.958 15.080,33.958 C15.080,33.958 15.400,33.958 15.400,33.958 C15.400,33.958 15.400,33.099 15.400,33.099 C15.400,33.099 16.177,33.099 16.177,33.099 C16.177,33.099 16.588,33.958 16.588,33.958 C16.588,33.958 16.953,33.958 16.953,33.958 C16.953,33.958 16.496,33.099 16.496,33.099 C16.679,33.099 16.999,32.963 16.999,32.511 C16.999,32.058 16.679,31.923 16.314,31.923 ZM15.400,32.194 C15.400,32.194 16.314,32.194 16.314,32.194 C16.496,32.194 16.679,32.239 16.679,32.511 C16.679,32.692 16.542,32.827 16.314,32.827 C16.314,32.827 15.400,32.827 15.400,32.827 C15.400,32.827 15.400,32.194 15.400,32.194 ZM19.420,31.923 C19.420,31.923 18.461,31.923 18.461,31.923 C18.461,31.923 18.461,33.958 18.461,33.958 C18.461,33.958 19.420,33.958 19.420,33.958 C20.014,33.958 20.425,33.506 20.425,32.918 C20.425,32.466 20.151,31.923 19.420,31.923 ZM18.735,32.194 C18.735,32.194 19.420,32.194 19.420,32.194 C19.831,32.194 20.151,32.511 20.151,32.918 C20.151,33.235 19.922,33.687 19.420,33.687 C19.420,33.687 18.735,33.687 18.735,33.687 C18.735,33.687 18.735,32.194 18.735,32.194 ZM21.612,33.415 C21.612,33.415 21.430,33.596 21.430,33.596 C21.567,33.732 21.841,34.003 22.435,34.003 C22.983,34.003 23.440,33.822 23.440,33.370 C23.440,32.873 22.983,32.737 22.480,32.737 C22.480,32.737 22.206,32.737 22.206,32.737 C21.978,32.737 21.841,32.647 21.841,32.511 C21.841,32.239 22.206,32.149 22.435,32.149 C22.800,32.149 22.937,32.285 23.120,32.375 C23.120,32.375 23.303,32.149 23.303,32.149 C23.211,32.058 22.892,31.878 22.435,31.878 C22.069,31.878 21.567,32.058 21.567,32.511 C21.567,32.873 21.887,33.008 22.161,33.008 C22.161,33.008 22.480,33.008 22.480,33.008 C22.755,33.008 23.120,33.008 23.120,33.370 C23.120,33.642 22.755,33.732 22.480,33.732 C21.978,33.732 21.750,33.506 21.612,33.415 ZM22.161,5.554 C22.161,5.554 24.993,6.503 24.993,6.503 C24.993,14.961 19.968,24.143 12.476,29.480 C5.031,24.143 0.006,14.961 0.006,6.503 C0.006,6.503 2.838,5.554 2.838,5.554 C2.838,5.554 3.249,4.061 3.249,4.061 C3.249,4.061 5.853,3.292 5.853,3.292 C5.853,3.292 6.492,1.573 6.492,1.573 C7.269,1.347 12.157,-0.010 12.522,-0.010 C12.842,-0.010 17.730,1.347 18.506,1.573 C18.506,1.573 19.146,3.292 19.146,3.292 C19.146,3.292 21.750,4.061 21.750,4.061 C21.750,4.061 22.161,5.554 22.161,5.554 ZM11.654,25.998 C11.654,25.410 11.654,2.930 11.654,2.523 C11.380,2.659 9.781,3.382 9.690,3.473 C9.690,3.473 9.690,3.609 9.827,18.535 C9.827,18.535 9.599,17.675 9.599,17.675 C8.411,13.650 7.771,9.217 7.771,4.468 C7.452,4.694 6.036,5.689 5.944,5.734 C5.990,9.353 6.355,12.655 7.041,15.640 C7.041,15.640 7.041,15.685 7.041,15.685 C7.041,15.685 6.310,16.454 6.310,16.454 C6.310,16.454 6.264,16.318 6.264,16.318 C5.213,14.600 4.071,11.388 3.843,7.543 C3.523,7.770 2.518,8.584 2.427,8.629 C2.747,14.826 5.579,18.851 6.127,19.575 C6.127,19.575 6.310,19.349 7.589,17.856 C7.589,17.856 7.680,18.082 7.680,18.082 C9.096,22.832 11.015,25.319 11.654,25.998 ZM18.826,12.067 C18.826,12.067 18.598,11.976 18.598,11.976 C18.598,11.976 18.826,11.840 18.826,11.840 C20.562,10.891 21.430,9.805 21.430,8.719 C21.430,8.674 21.430,8.584 21.430,8.539 C21.156,5.508 14.441,2.930 13.299,2.523 C13.299,2.885 13.299,25.410 13.299,25.998 C14.578,24.777 20.790,18.580 20.790,14.690 C20.790,14.509 20.745,14.283 20.699,14.102 C20.516,13.152 19.877,12.474 18.826,12.067 ZM19.328,8.719 C19.283,9.715 17.958,10.619 15.400,11.298 C15.400,11.298 15.217,11.343 15.217,11.343 C15.217,11.343 15.217,5.644 15.217,5.644 C15.217,5.644 15.217,5.463 15.217,5.463 C15.217,5.463 15.400,5.554 15.400,5.554 C16.359,5.870 19.374,7.136 19.328,8.719 ZM15.354,13.424 C17.227,13.197 18.369,13.514 18.780,14.283 C19.785,16.228 15.902,20.434 15.446,20.887 C15.446,20.887 15.217,21.113 15.217,21.113 C15.217,21.113 15.217,13.469 15.217,13.469 C15.217,13.469 15.354,13.424 15.354,13.424 Z"/>
</svg>