<svg xmlns="http://www.w3.org/2000/svg" xmlns:xlink="http://www.w3.org/1999/xlink" version="1.1" id="Shape_1_1_" x="0px" y="0px" viewBox="0 0 25 23" enable-background="new 0 0 25 23" xml:space="preserve">
<g id="Shape_1">
	<g>
		<path fill-rule="evenodd" clip-rule="evenodd" fill="#ffffff" d="M14.5,14.5C14.5,14.5,14.5,14.5,14.5,14.5    C14.5,14.5,14.5,14.5,14.5,14.5L14.5,14.5z M24,4.8c-0.1-0.1-0.1-0.2-0.1-0.3c0,0,0,0,0,0c0-0.1-0.1-0.2-0.1-0.2    c0,0,0.1,0,0.1-0.1c-0.1,0-0.1-0.2-0.2-0.1c0,0,0,0,0-0.1c0,0,0,0,0,0l-0.1-0.2h0c0,0,0,0-0.1,0c0-0.1,0-0.2,0.1-0.2    c-0.1-0.1-0.2-0.2-0.2-0.3l-0.1,0c0,0,0,0,0-0.1c0,0,0-0.1,0-0.1c0,0,0-0.1,0-0.2h-0.1c0-0.2-0.2-0.2-0.2-0.3c-0.1,0,0-0.1,0-0.2    l0,0h0l0,0c-0.1,0,0-0.1-0.3-0.1c0,0,0-0.1,0-0.1c0,0-0.1,0.1-0.1,0.1l0-0.1l0,0c0,0,0-0.2,0-0.3l-0.1,0V1.9c-0.1,0-0.2,0-0.2,0    l-0.1,0V1.7h0c0,0-0.1,0-0.2,0l0-0.2l-0.1,0.1l-0.2-0.2c0,0-0.1,0-0.2,0s-0.1-0.1-0.1-0.1s0,0,0,0c0,0-0.1,0-0.1,0    c0,0,0-0.2-0.1-0.2v0H21c-0.1-0.1-0.2,0-0.3-0.2c0,0,0,0.1,0,0.1l-0.1-0.1h-0.1c0,0,0-0.1,0-0.1c0,0,0,0,0,0c0,0-0.1,0-0.1-0.1    c0,0,0,0.1,0,0.1c-0.1,0-0.2,0-0.2,0v0h0l0,0v0h-0.2l-0.1,0c0,0-0.1,0-0.1,0c0,0,0,0.1,0,0.1c0,0.1,0,0.1-0.1,0.1    c-0.2,0-0.4-0.1-0.5-0.2l0,0c0-0.1-0.2,0-0.2-0.1c-0.1,0-0.1,0.2-0.1,0.2l-0.1,0l-0.1,0c0,0,0,0,0,0c0,0-0.1,0.1-0.1,0v0l-0.1-0.1    c-0.1,0-0.2,0.1-0.4,0.1c0,0,0,0.1-0.1,0.1c0,0,0,0-0.1,0v0c0,0-0.2,0-0.2,0.1c-0.2,0-0.4,0.1-0.6,0.2V1.6    c-0.1,0.1-0.3,0.1-0.4,0.2c0,0,0,0.1,0,0.1l0,0.1c-0.1,0-0.2,0-0.3,0.1h0L16,2.2h0c-0.1,0-0.1,0-0.2,0l-0.1,0.1h0v0    c0,0,0,0.1-0.1,0.1c0,0.1-0.1,0.2-0.1,0.3c0,0-0.1,0-0.2,0l0,0.1c-0.1,0-0.1,0.1-0.2,0.2v0.2c0,0-0.1,0.1-0.1,0.1L15,3.3    c0,0-0.2,0.1-0.2,0.1h0c-0.1,0,0,0.1-0.1,0.2c0,0,0,0,0,0.1c0,0,0,0-0.1,0.1c0,0,0,0,0,0c0,0-0.1,0-0.1,0v0l0,0.1c0,0-0.1,0-0.2,0    V4l0,0.1c-0.1,0,0,0.1-0.1,0.1c0,0.1-0.2,0.2-0.2,0.3h-0.1l0,0c-0.1,0-0.2,0.3-0.2,0.4c0,0-0.1,0.1-0.1,0.1c0,0.1-0.1,0.1-0.1,0.2    c-0.1,0-0.1-0.1,0-0.2c0,0-0.1-0.1-0.1,0V4.9c0,0,0,0,0-0.1c0,0-0.1,0-0.1-0.1c0-0.1,0-0.1,0.1-0.2c0.1,0,0-0.1,0-0.2v0    c0.1,0,0.1-0.2,0.2-0.2l0-0.1c0.1,0,0.1-0.1,0.2-0.2c0,0,0,0,0,0c0,0,0-0.1,0-0.1v0l0,0c0-0.1,0-0.3,0.2-0.4c0,0-0.1,0-0.1,0    c0,0,0.1-0.1,0.1-0.1c-0.1,0-0.1-0.1-0.1-0.2l0.1-0.1c0,0,0-0.1,0-0.2h0l0,0c0,0,0-0.1,0-0.1c0,0,0,0,0-0.1c0-0.1-0.1-0.2-0.2-0.2    V2.2l0,0c0-0.2-0.1-0.1-0.1-0.2h-0.1c0-0.1-0.1-0.2,0-0.3l-0.1,0c-0.1,0-0.2,0-0.2,0s-0.1,0-0.2,0c0-0.1-0.2,0-0.1-0.1    c0,0-0.1,0-0.1-0.1l-0.1,0V1.5c-0.1,0-0.2-0.1-0.3-0.1l0,0c0,0-0.1,0-0.2,0h-0.2c0,0-0.2,0-0.2,0c-0.1,0-0.4,0-0.5,0    c-0.4,0-0.8,0-1.2,0C10,1.3,10,1.2,9.9,1.2c-0.2,0-0.4,0-0.5,0c-0.2,0-0.3,0-0.4,0.1H8.8c-0.1,0-0.1,0.1-0.2,0.2h0    c-0.1,0-0.1,0-0.2,0L8.3,1.5c0,0-0.1-0.1-0.1-0.1l0,0c0,0.1-0.2,0.1-0.3,0.1c-0.1,0-0.2,0.1-0.2,0.1c-0.1,0-0.1-0.1-0.1-0.1l0,0.1    l-0.2,0c-0.1,0-0.2,0-0.3-0.1H6.9c-0.1,0-0.1,0-0.1-0.1c0,0,0,0,0,0c0,0,0,0,0,0H6.5c0,0-0.1,0-0.1,0V1.4H6.2v0.1L6.1,1.4    c-0.1,0-0.2,0-0.2,0.1C5.8,1.4,5.6,1.4,5.5,1.4C5.4,1.3,5.1,1.3,5,1.3c0,0-0.1,0-0.2,0c0,0-0.1,0.1-0.1,0c0,0-0.1,0.1-0.1,0.1l0,0    v0c0,0.1-0.3,0.2-0.4,0.2c0-0.1,0-0.1-0.1-0.1c0,0-0.1,0-0.1-0.1l0,0.1c-0.1,0-0.2,0-0.2-0.1C3.5,1.7,3.4,1.7,3.2,1.8    c0-0.1-0.1-0.1-0.1-0.2c0,0-0.2,0-0.3,0H2.6c0-0.1-0.1-0.1-0.1-0.1s-0.2,0-0.2,0c-0.1,0-0.1,0.1-0.2,0.1c-0.1,0-0.2,0-0.3,0    l-0.1,0c0,0,0-0.1-0.1-0.1c0,0-0.1,0.1-0.2,0.1v0l0,0c0,0,0,0-0.1,0h0c0,0.1,0.1,0.2,0.1,0.2C1.4,2,1.3,2.2,1.3,2.4H1.2    c0,0.1,0,0.1-0.1,0.1v0c0,0,0,0.1,0,0.2c0,0.1,0,0.3-0.1,0.5c0.1,0.1,0,0.2,0.2,0.4l0,0.1c0,0.1,0,0.2,0,0.2c0,0,0,0.2,0,0.2    c0,0,0,0.1,0,0.2l0.1,0.2c0,0.1,0.1,0.1,0.1,0.2c0,0.1,0,0.1,0.1,0.2v0H1.3c0.1,0,0.1,0.1,0.1,0.2c0,0,0,0,0,0c0,0,0.1,0.1,0.1,0    c0,0,0.2,0,0.2,0.1l0-0.1c0,0,0,0,0,0c0,0,0.1,0,0.1-0.1h0C1.9,5,2,5,2,5c0,0,0,0,0.1,0c0,0,0.1,0,0.1,0.1c0,0,0.1,0,0.1,0    c0,0,0.2,0,0.2,0l0,0c0,0,0.1,0,0.2,0c0,0.2,0.1,0.1,0.2,0.2l0,0l0.2,0c0,0,0.1,0,0.1,0c0.1,0,0.1,0,0.2,0c0,0,0.1,0,0.2,0    c0,0,0-0.1,0-0.1c0-0.1,0-0.1,0.1-0.1c0.1,0,0.1,0,0.2,0c0,0,0.1-0.1,0.1,0c0,0,0.1,0,0.1,0c0,0,0.1,0,0.1-0.1C4.2,5,4.3,5,4.3,5    V5c0.1,0,0.2,0,0.3,0l0,0c0,0,0,0,0,0.1c0,0,0.1,0.1,0.1,0.1v0H5c0,0,0,0.1,0.1,0.1c0,0,0.1-0.1,0.2-0.1v0l0.3,0.2    c0,0,0.2,0,0.2,0.1l0.1-0.1c0,0,0.2,0,0.1,0c0.1-0.1,0.4-0.2,0.5-0.2h0c0,0,0.2,0,0.2,0c0.1,0,0.2,0,0.3,0C7,5,7.3,4.8,7.3,4.8    v0.1c0.1,0,0.1-0.2,0.2-0.2c0-0.1,0.2,0,0.2-0.2c0.1,0,0.2-0.1,0.2-0.1l0.1,0.1c0-0.1,0-0.1,0.1-0.1v0.1l0.2,0    c0,0.1-0.1,0.2-0.1,0.3v0C8.2,4.9,8,5,8,5.1c0,0,0,0,0.1,0c0,0.1,0,0.2-0.1,0.2v0c0,0.1-0.1,0.1-0.1,0.2c0,0.1,0,0.2,0.1,0.2v0.1    c0,0.1,0,0.3,0,0.3H7.9c0,0,0,0,0,0.1c0,0,0,0-0.1,0.1c0.1,0,0,0.1,0,0.1c0,0,0,0,0,0S7.9,6.5,8,6.5c0,0,0,0.1,0,0.1    c0,0,0.2,0.1,0.1,0.1c0,0,0.1,0.1,0.1,0.1c0,0.1,0,0.2-0.1,0.2h0.1l0,0c0,0,0,0,0.1,0c0,0-0.1,0.1-0.1,0.1c0.1,0,0.1,0.1,0.1,0.2    c0,0,0,0.1,0,0.1v0.1c0,0.1-0.1,0-0.1,0c0.1,0.1,0,0.2,0.1,0.2L8,7.8c0,0,0,0.1,0,0.1c0,0,0,0,0,0.1c0,0,0,0.1-0.1,0.1    c0,0,0,0.1,0,0.2c0,0,0,0.1-0.1,0.1v0.1h0v0.3l0.1,0l-0.1,0C7.9,8.8,7.9,9,8,9v0c0,0.1,0,0.1,0,0.2c0.1,0,0,0.2,0,0.3c0,0,0,0,0,0    l0,0.2c0,0,0,0.2,0,0.2L8.1,10V10c0.1,0.1,0.1,0.2,0.2,0.3c-0.1,0,0,0.1-0.2,0.1c0,0,0,0,0,0.1l0,0.1c0,0,0,0,0,0c0,0,0,0,0,0    c-0.2,0-0.2,0.2-0.2,0.3c0,0.1,0,0.2,0,0.4h0c0,0,0.1,0.2,0.1,0.2L8,11.7h0c0,0,0,0.1,0,0.2l0,0c0,0,0,0,0,0.1c0,0-0.1,0-0.1,0    c0.1,0.1,0.1,0.2,0.1,0.2c0,0,0,0.1,0,0.1c0,0.1,0,0.1-0.1,0.1c0,0,0,0,0,0.1c0,0-0.1,0.1-0.1,0.1c0,0.1-0.1,0.1-0.1,0.2    c0,0,0,0,0,0.1c0,0-0.1,0.1-0.1,0.1c0.1,0.1,0.1,0.3,0.1,0.5c0,0,0,0.1,0,0.1c0,0.1,0,0.5,0,0.5v0.1c0,0,0,0.1,0,0.2    c0,0,0,0,0,0.1c0,0.1,0.1,0.2,0.1,0.3c0,0.1,0,0.2-0.1,0.2c0,0.1,0.1,0.1,0.1,0.2s-0.1,0.1-0.1,0.1c0.2,0,0.1,0.2,0.2,0.2    c0.1,0,0.1,0.1,0.1,0.1c0,0-0.1,0-0.2,0c0,0,0,0,0,0.1c0,0-0.1,0.1-0.1,0.1v0.1C8,15.8,8,16,8,16.1c0,0,0,0,0,0c0,0,0,0.1,0,0.1    c0,0,0,0,0,0s0,0-0.1,0c0,0.1,0,0.2,0,0.3c0.1,0,0,0.3,0.2,0.2c0,0,0,0.2-0.1,0.2c0,0.1,0,0.2,0,0.3l0.1,0.2c0,0.1,0,0.1,0,0.2    c0,0.1,0,0.2,0.2,0.2c0,0,0,0.1,0,0.2c0,0.1,0,0.1,0.1,0.1c0,0,0,0,0,0c0,0.1-0.1,0.1-0.1,0.2l0,0H7.9v0.2c-0.1,0,0-0.2-0.1-0.2    c0,0-0.1,0-0.1,0h0c0,0-0.1-0.1-0.1-0.1c0-0.1-0.2-0.2-0.2-0.3c0,0-0.3-0.1-0.3,0C7,18,7,18,7,18l0.1-0.1c-0.1,0-0.2,0-0.2,0    c0,0,0,0,0,0l-0.1,0c0,0-0.1,0-0.1,0c0,0-0.1,0.1-0.2,0.1l0-0.1c-0.1,0-0.1,0-0.1,0.1h0c0,0,0,0.1,0,0.1c0,0-0.1,0-0.1,0l0,0    c0,0,0-0.1-0.1,0l0-0.1V18H6.1c0-0.1-0.1-0.1-0.2-0.1h0c-0.1,0-0.1-0.1-0.1-0.2l-0.1,0c-0.2,0-0.1,0.2-0.2,0.2l0,0    c0,0-0.1,0.1-0.1,0.1c0-0.1,0-0.1-0.1-0.1c0,0-0.1-0.1-0.2-0.1v0H5c0,0,0,0-0.1,0l0,0h0c0,0-0.1,0-0.1,0v-0.1c0,0-0.1,0-0.1,0v0    c0,0,0,0,0,0c0,0,0,0,0,0.1H4.6c0,0-0.1,0.1-0.1,0h0c0,0-0.2,0-0.2,0l-0.1,0l-0.1,0c0,0,0,0-0.1,0C4,18,4,18.2,3.9,18.2    c-0.1-0.1-0.2,0-0.2-0.2H3.7c-0.1,0-0.2,0-0.2,0.1C3.4,18.1,3.4,18,3.4,18h0c0,0,0,0,0-0.1c0,0-0.1,0.1-0.1,0.1    C3.1,17.9,3,17.9,3,17.8l-0.1,0l0,0c-0.1,0-0.2,0-0.3,0V18l0,0.1v-0.1c-0.1,0-0.2,0-0.2-0.1c-0.1,0-0.2,0.1-0.2,0.2    c0-0.1,0-0.2,0-0.2h0v-0.1H2.1L2,17.8c0,0,0,0-0.1,0c0,0-0.1,0-0.1,0.1H1.7c0,0,0,0.1,0,0.2c0,0,0,0,0,0c-0.1,0-0.2,0-0.3,0.1    c0,0,0,0.1-0.1,0.1v0.1H1.2c0,0,0.1,0,0.1,0.1c0,0,0,0.1,0,0.2h0c-0.1,0,0,0.1,0,0.2c0,0.1,0,0.1,0,0.2h0c0,0.1,0,0.1-0.1,0.1    c0,0.1,0,0.3,0,0.4c0,0,0,0.1,0,0.2v0.2c0,0,0,0.5,0,0.6v0.1c0,0,0,0,0,0c0.1,0,0,0.4,0.2,0.4c0,0.1,0,0.1-0.1,0.1    c0,0,0.1,0.1,0.2,0.1h0c0,0,0.2,0.2,0.2,0.2c0.1,0,0.1,0.1,0.2,0.1v0c0.1,0,0.2,0.3,0.5,0.3c0,0,0,0,0,0c0,0,0,0.1,0,0.1    c0,0,0,0,0,0c0-0.1,0.2,0,0.2-0.1c0,0,0.1,0.1,0.2,0.1l-0.1-0.1c0,0,0,0,0.1,0c0,0.1,0,0.2,0.2,0.2c0,0,0,0,0-0.1    c0.1,0,0.1,0,0.2,0c0,0,0,0,0,0l0.1-0.1c0,0,0,0,0,0c0,0,0,0,0.1,0l0,0v0c0,0,0.1,0,0.2,0c0,0,0.1,0,0.1,0.1c0,0,0.1,0,0.1,0    c0,0,0,0,0,0c0,0,0,0,0.1,0c0,0,0.1,0,0.2,0h0.5c0,0,0,0,0.1,0c0.1,0,0.1-0.2,0.2-0.2h0v0.1c0,0,0.1-0.2,0.1-0.2h0    c0,0.2,0.3,0.1,0.2,0.2l0.1,0c0,0,0,0,0,0c0,0,0.1,0,0.1,0h0c0,0,0.2-0.1,0.4-0.1c0,0,0.1-0.1,0.2,0l0,0v-0.1c0,0,0,0,0.1,0    c0,0,0.1,0,0.2,0v0c0.1,0,0.1,0.1,0.2,0.1l-0.1,0l0,0.1h0.2c0,0.1,0.5,0.1,0.6,0.1h0.3l0.1-0.1c0,0,0.1,0.1,0.1,0.1h0    c0,0,0-0.2,0.1-0.2c0.1,0,0.2,0.1,0.2,0.1c0,0,0-0.1,0-0.1c0,0,0.1,0,0.1,0c0.1,0,0.1,0,0.2,0c0,0,0,0,0,0c0,0,0.2,0,0.2,0.1    c0-0.2,0.1-0.1,0.1-0.2c0,0,0.1,0,0.1,0c0,0,0,0,0.1,0c0.1,0.1,0.2,0.1,0.4,0.2h0.2c0,0.1,0.5,0,0.7,0c0-0.1,0.2,0,0.2,0v-0.1h1.3    c0.1,0,0.1-0.1,0.1-0.1c0,0,0,0,0,0c0,0,0,0.1,0,0.1h0.2c0,0,0,0,0.1,0c0,0,0.1-0.1,0.2-0.1h0l-0.1,0l0.1,0c0.1,0,0-0.1,0.2-0.1    c0.1,0,0.1-0.1,0.1-0.1l0,0c0,0,0,0,0,0c0,0,0.1,0,0.1,0l0,0.1c0.1,0,0.1,0,0.2,0c0,0.1,0.1,0.2,0.2,0.2c0.1,0,0.1-0.1,0.2-0.1    c0,0,0-0.1,0-0.2h0.2c0,0,0.1,0,0.2,0v-0.1c0,0.1,0.2,0.2,0.2,0.2c0,0,0.1-0.1,0.1-0.1c0,0,0.1,0.2,0.2,0.1c0.1,0,0.2,0,0.2,0    c0.1,0,0.2,0,0.2-0.1c0,0,0.2,0,0.2,0.1c0.2,0,0.8,0,1,0l0.1-0.1c0,0.1,0.1,0.1,0.1,0.1h0c0,0,0,0,0,0c0.1,0,0.1-0.1,0.2,0l0,0    h0.4c0,0,0.3,0,0.3-0.1c0,0,0.2,0,0.2,0.1c0,0,0-0.1,0.1-0.1v0.1c0,0,0,0,0,0s0-0.1,0.1-0.1v0.1c0,0,0,0,0,0c0,0,0.1,0,0.1-0.1    v0.1c0.2,0,0.2-0.1,0.2-0.2c0,0,0.1,0,0.1,0c0.1,0,0.1-0.2,0.2-0.1c0-0.1,0.2,0,0.2-0.1l0.1,0.1l0-0.1h0.2c0.1,0,0.2,0,0.2,0.1    l0.1-0.1v0c0,0,0.1,0,0.2,0c0,0,0,0.2,0.1,0.2c0,0,0.1,0,0.2,0v0h0.2l0.1,0l-0.1,0c0,0,0,0,0.1,0c0,0,0.1,0,0.1-0.1l0,0.1l0.1-0.1    v0.1l0.1-0.1l0,0.1c0-0.1,0-0.1,0-0.2c0,0,0.1,0.1,0.1,0.2l0-0.1c0,0,0,0,0.1,0c0,0,0.1,0,0.1,0.1v0l0,0c0.1,0,0.1,0,0.1,0.1    l0,0.1l0-0.1h0c0,0,0,0.1,0.1,0.1l0-0.1l0.1,0.1c0.1-0.1,0.3,0,0.4,0v0c0.2,0,0.2,0,0.2,0.2c0,0,0-0.1,0.1-0.1h0.3v-0.1    c0,0,0,0,0.1,0l0,0v0.1h0c0.1,0,0.3-0.2,0.3-0.2c0.1-0.1,0.2,0,0.3-0.1c0,0,0.1,0,0.1,0c0.1,0,0.2,0,0.3-0.1c0,0,0,0,0,0    c0,0,0,0,0-0.1c0.1,0,0.1,0.1,0.1,0.2c0-0.1,0.1-0.2,0.2-0.2c0-0.1,0.1-0.2,0.2-0.1l0.2-0.1l-0.2-0.1c0-0.1,0-0.2,0.1-0.1    c0,0,0,0,0,0c0,0,0-0.1,0-0.1h0l0-0.1c0,0,0-0.1,0-0.2c0,0,0-0.1,0.1,0v-0.3c0-0.1,0-0.5-0.1-0.5c0-0.1,0-0.1,0-0.2l0-0.1    l-0.1,0.1l-0.1-0.1c-0.1,0,0-0.2-0.1-0.2l0,0c0,0,0,0,0,0l0.1-0.1c0,0-0.1-0.1-0.1-0.2l0.1,0c0,0,0-0.1,0-0.2c0,0,0,0,0.1,0    c-0.1-0.1-0.1-0.2,0-0.3l-0.1,0h0.1l-0.1-0.2l0.1-0.1c-0.1,0-0.1,0-0.1,0l-0.1,0c-0.1-0.2-0.2-0.2-0.4-0.3c-0.1,0-0.2-0.2-0.3-0.2    l0-0.2l0,0h0v0c0,0-0.1,0.1-0.1,0.1c0,0-0.1-0.1-0.2-0.1c0,0,0,0,0,0c-0.1,0-0.2,0-0.3,0v0l0,0l-0.1,0.1c0,0-0.1-0.2-0.2-0.2    c0,0,0,0,0,0c0,0,0,0.1-0.1,0.1h0v0c0,0.1-0.2,0-0.2,0c0,0-0.1,0-0.1,0c-0.1,0-0.1,0-0.2,0l0,0c0,0.1-0.2,0-0.2,0.1h-0.1v0    l-0.2,0.1c-0.2,0-0.1-0.3-0.2-0.3c0,0,0,0-0.1,0l-0.1-0.1c-0.1,0.1-0.3,0-0.5,0l-0.1,0.1c0,0-0.1-0.1-0.1-0.1c0,0,0,0.1-0.1,0.1    l0-0.1c0,0.1-0.2,0.1-0.2,0.1c0,0-0.1,0-0.1-0.1v0.2c-0.1,0-0.2,0.1-0.2,0c0,0.1-0.1,0.1-0.2,0.1c0,0-0.1,0-0.2,0l0,0.1h-0.1    l-0.1,0c0-0.1-0.2,0-0.2-0.2h-0.1l-0.1,0.1c0,0-0.1,0-0.2,0c0-0.2-0.3,0-0.4-0.2c0,0.1,0,0.1-0.1,0.1c0,0,0-0.1,0-0.1h-0.3l-0.1,0    c0,0-0.2,0.1-0.2,0.2c0,0-0.1,0-0.1-0.1c0,0.1-0.2,0-0.2,0.1c0,0-0.1,0-0.2,0s-0.1-0.1,0-0.2l-0.1,0.1h-0.1    c-0.1-0.1-0.1-0.2-0.2-0.2c0-0.2-0.2-0.1-0.2-0.1c0,0,0-0.1,0-0.1v0h0c-0.1,0,0-0.2-0.1-0.2v0c0-0.1,0-0.1,0-0.2    c0,0,0-0.1-0.1-0.1c-0.1,0-0.1,0-0.2,0c0,0,0,0,0,0c0-0.1,0.1-0.1,0.1-0.2c0,0,0-0.1-0.1-0.1c0,0,0.1-0.1,0.1-0.2h0    c-0.1,0-0.1,0.1-0.2,0.1l0-0.1c0-0.1,0-0.1,0.1-0.1v0h-0.1c0,0,0-0.2,0-0.2c0,0,0-0.1,0-0.1l0.2,0l0-0.1c0,0,0-0.1,0-0.2    c0-0.1,0-0.2,0-0.2c0,0,0-0.1,0.1-0.1l0,0v-0.2c0-0.1,0-0.2,0.1-0.2l-0.1-0.1c0,0,0-0.1,0-0.1c-0.1,0,0-0.2-0.2-0.2    c0-0.1,0.1-0.2,0.1-0.2c-0.1,0,0-0.2,0-0.2c0,0,0,0,0-0.1h0v0c0-0.1,0-0.1,0-0.2c0,0,0.1-0.2,0.1-0.2c0-0.1,0-0.2,0-0.3l0,0h0    c0-0.1,0-0.3,0.1-0.3v-0.3l0,0l0-0.1c0-0.1-0.1-0.1-0.1-0.2c0,0,0.1,0,0.1,0c0-0.1,0-0.2,0.1-0.2c0-0.1-0.1-0.1,0-0.2    c-0.1-0.1,0-0.2,0-0.3c0,0-0.1,0-0.1,0v0h0.1c-0.1,0-0.2-0.1-0.2-0.2l0,0l0-0.1c0,0,0,0,0,0c0,0,0,0,0-0.1v0c0,0,0,0-0.1,0    c0,0,0-0.1,0-0.1c0,0,0.1-0.1,0.1-0.1v-0.1c0,0,0,0,0,0c0,0,0,0,0-0.1c0-0.1-0.2-0.2-0.2-0.2l0.1,0c0-0.1,0.1-0.1,0.2-0.1l-0.1,0    c0-0.2,0.3,0,0.3-0.2c-0.1,0-0.2-0.1-0.2-0.2l0-0.1c-0.1,0,0-0.2,0-0.2c0,0-0.1-0.1-0.2-0.1l0.2,0c0,0,0-0.1,0-0.1    c0-0.1,0.1-0.1,0.1-0.1c-0.1,0-0.1-0.2-0.2-0.2c0.1,0,0-0.2,0.1-0.1c0-0.1,0-0.2-0.1-0.2c0,0,0,0,0,0c0,0,0,0,0,0c0,0,0-0.1,0-0.1    c0,0,0,0,0,0c0,0-0.1-0.1-0.1-0.2c0.1,0,0-0.2,0-0.2h0.1c0-0.1,0-0.2-0.1-0.2l0.1-0.1v0c0,0,0,0,0,0c0,0,0-0.1,0-0.1h0v0    c0,0,0.1,0,0.1-0.1h-0.1c0-0.1,0.1-0.2,0.2-0.3h0.1l0.1-0.1c0,0-0.1-0.1-0.1-0.1C14.8,7,15,6.7,15,6.7c0,0,0-0.2,0.1-0.2L15,6.4    c0,0,0.1-0.1,0.2-0.1c0,0,0.1-0.1,0.2-0.2c0,0,0.1,0.1,0.1,0.1c0.1,0,0.2-0.1,0.2-0.2c-0.1,0-0.1-0.1-0.1-0.1    c0.1,0,0.4-0.1,0.5-0.2l0.2-0.3c0.1,0,0.1,0,0.2,0V5.3c0-0.1,0.1,0,0.1-0.1h0c0,0,0,0,0-0.1c0,0-0.1,0-0.1-0.1s0.1,0,0.1-0.1h0v0    c0-0.1,0.1-0.2,0.2-0.2c0-0.1,0.1-0.2,0.1-0.2c0,0,0.1-0.1,0.1-0.1v0.1H17c0,0,0.1,0,0.1,0.1l0-0.1h0c0.1,0,0.1-0.1,0.2-0.1    c0,0,0.1,0,0.1,0.1c0,0-0.1,0-0.1,0c0.1,0,0.1,0,0.2,0c0,0.1,0,0.3,0,0.4c0,0,0,0.1,0,0.1c0,0,0.1,0,0.1,0.1v0h-0.1    c0,0-0.1,0.1,0,0c0,0-0.1,0-0.1,0.1l0,0.1v0.2c0.1,0,0,0.1,0,0.1c0.2,0,0.1,0.2,0.1,0.3c0,0,0,0.1,0,0.2c0,0.1-0.1,0.1-0.1,0.1    l0.1,0.1c0,0.1,0,0.1-0.1,0.1c0,0,0.1,0.1,0.1,0.2c0,0,0,0,0,0c0,0,0.1,0,0,0.1c0.1,0,0.1,0.1,0.2,0.2l-0.1,0h-0.1    c0,0,0,0.2-0.1,0.2l0.1,0.1l0,0c0.1,0,0.1,0.1,0.1,0.2c0.1,0,0.2,0,0.1,0.1l0.1,0v0.2l0,0c0,0.1,0.1,0.1,0.1,0.1c0,0,0.1,0,0,0.2    c0,0,0.1,0.1,0.2,0.1c0,0,0,0.2,0,0.2c0,0,0.1,0.1,0.1,0.2c0,0,0.1,0,0.2,0l0,0c0,0,0.1,0,0.1,0c0,0,0.1,0,0.1,0.1    c0.1,0,0.1-0.1,0.1-0.2c0,0,0,0,0,0c0,0,0.1,0,0.1,0c0-0.1,0.1-0.1,0.2-0.2l0.1,0v0.2h0c0,0,0,0,0,0.1s0.2,0,0.2,0.1v0    c0,0,0.1,0,0.1,0.1l0,0.1c0.1,0,0.1,0,0.1,0.1c0,0,0,0,0,0c0,0,0,0.1,0.2,0.1c0.1,0,0.2,0,0.2-0.1c0,0,0.1,0,0.2,0.1v0l0.1,0h0    c0,0,0.2-0.1,0.2-0.1c0,0,0,0,0,0.1c0,0,0,0,0,0l0-0.1c0-0.1,0.1-0.1,0.2-0.1c0,0,0.1,0.1,0.1,0.1c0,0,0-0.1,0.1,0    c0-0.1,0.2-0.2,0.3-0.2v0c0.1,0,0.1-0.1,0.2-0.1v0c0.2,0,0.1-0.2,0.1-0.2c0,0,0,0,0,0s0.2,0,0.2,0c0,0,0.1,0,0.1,0l0.1,0    c0-0.1,0.2,0,0.2,0c0.1,0,0.1-0.1,0.1-0.1l0.1,0.1c0,0,0-0.1,0.1-0.1c0.1,0,0.1,0.1,0.1,0.1l0.1-0.1l0,0c0-0.1,0.2-0.2,0.2-0.3    c0,0-0.1,0-0.1,0V7.7c0,0,0-0.1,0-0.1l0.1-0.1v0l0-0.1h0.2c0-0.1,0,0,0-0.1c0,0,0.1,0,0.1,0s0,0,0,0c0,0,0.2-0.1,0-0.1    c0-0.1,0.1-0.1,0.1-0.1c0-0.2,0.2-0.2,0.2-0.3V6.4h-0.2V6.1c0.1,0,0-0.2,0.1-0.3h0.1V5.7c-0.1,0-0.1-0.1-0.2-0.1l0.1-0.1    c0,0,0,0,0,0c0,0,0-0.1,0.1-0.1l0,0c0,0,0-0.1-0.1-0.1c0,0,0,0-0.1,0c0,0,0,0,0,0c0,0,0-0.1,0-0.1c0,0,0,0,0.1,0l0-0.1h0    c0,0,0,0,0-0.1C23.9,4.9,23.8,4.8,24,4.8z M1.6,7.9C1.6,7.8,1.6,7.8,1.6,7.9C1.7,7.8,1.7,7.8,1.6,7.9L1.6,7.9z M1.6,15.3L1.6,15.3    c0,0.2,0.2,0.1,0.1,0.2c0.1,0,0.2,0,0.4,0c0-0.2,0.2,0.1,0.2,0.1c0,0.1,0.1,0.1,0.1,0c0,0,0,0.1,0,0.1v0l0.1,0c0.1,0,0,0.1,0,0.2    c0.1,0.1,0.1,0.2,0.1,0.2c0,0,0.3,0.2,0.3,0.3c0.1,0,0.2,0.1,0.2,0.2c0.1,0,0.2,0.1,0.2,0.1c0.2,0,0-0.1,0.1-0.2h0.1    c0,0.2,0.1,0.2,0.2,0.3c0.1,0,0.3-0.1,0.4-0.1v0h0.1v-0.1c0.1,0-0.1-0.3,0.2-0.3l-0.1,0.1c0,0.1,0.1,0.1,0.1,0.2    c0.2,0-0.1-0.1,0.2-0.1l0,0c0,0,0.1,0,0.1,0c0-0.1,0-0.2,0.1-0.1v0.1c0.1,0,0.1-0.1,0.2-0.1c0,0.2,0.3,0.1,0.4,0.1    c0-0.1,0.1-0.3,0.2-0.3c0-0.1,0-0.2,0-0.2c0.1,0.2,0.2,0,0.3,0c0,0,0.1-0.1,0.2-0.1c0.1,0,0-0.1,0.1-0.2c0-0.1,0.2-0.1,0.1-0.1h0    c0-0.1,0-0.2,0.1-0.2H6.5c0,0-0.1,0-0.2,0v0.1c0-0.2-0.2-0.2-0.1-0.3h0c0-0.1,0-0.1,0.1-0.2c0,0,0,0,0.1,0c0-0.1,0-0.2,0-0.2    c0,0,0-0.2,0.1-0.2H6.5c0-0.2,0.1-0.2,0-0.2c0.1-0.2,0.1-0.2,0.1-0.4c-0.1,0.1,0-0.2-0.1-0.2c-0.1-0.1-0.1-0.2,0-0.3    c-0.2,0.1-0.1,0-0.2-0.1c0,0,0,0.1,0,0.2H6.1c0-0.1,0-0.2,0-0.2C6.3,13,5.9,13,5.8,12.9c0,0-0.4,0.1-0.3,0H5.4    c0-0.1-0.1-0.1-0.1-0.2l-0.1,0l0,0v-0.1c0.1,0,0-0.1,0.1-0.1l0-0.1c-0.1,0-0.7,0-0.8,0l0-0.1c0,0,0,0,0,0.1c-0.1,0-0.1,0-0.2-0.1    c0,0-0.1-0.1-0.1-0.2l-0.1,0.1c-0.2-0.1-0.1,0.2-0.2,0.2v-0.2c0.1,0,0.1-0.1,0.1-0.1c-0.1,0-0.1,0.1-0.2,0.1c0,0-0.1,0-0.1,0.1    c-0.1,0-0.3,0.1-0.4,0.1c0-0.1-0.2,0-0.2,0c-0.1,0-0.2,0-0.2,0.1c-0.1,0.1,0,0.2-0.1,0.2c0,0,0,0,0,0.1c0,0,0-0.1,0-0.1v0.1    l-0.1,0v0c-0.1-0.1-0.1,0-0.2,0c0,0.1-0.1,0-0.1,0c0,0.1-0.1,0.1-0.1,0.2c-0.1,0-0.2,0.2-0.3,0.2C2,13.5,2,13.6,1.9,13.7L2,13.8    c0,0,0.1-0.1,0.1,0l-0.1,0c0,0,0,0.1,0.1,0.1c0,0.1-0.1,0.1-0.1,0.1c0,0.1-0.1,0.2-0.1,0.2c0,0,0.1,0.1,0.1,0.1l-0.2,0.1    c0.1,0,0.3,0.3,0.1,0.3V15c0,0-0.2,0-0.2,0.1c0,0,0,0.1,0,0.1C1.6,15.2,1.6,15.2,1.6,15.3z M1.7,8.6c-0.1,0-0.1,0.1-0.1,0.1v0    c0.1,0.1,0,0.2,0,0.3c0,0,0.2-0.1,0.2,0s0,0.2-0.1,0.1C1.6,9.2,1.8,9.4,1.8,9.5h0C1.8,9.7,2,9.6,2,9.7c0,0,0.1,0,0.1,0    c0,0,0,0,0,0l0.1-0.1c0.2,0.1,0,0.2,0,0.3c0.1,0,0.1,0,0.2,0v0.2c0,0-0.1,0.1-0.1,0h0c0,0.1,0.1,0.2,0.2,0.2c0,0,0.1-0.1,0.1,0    c0.1,0.1,0.4,0,0.5,0c0,0,0.2,0.1,0.2,0.1c0,0,0,0.1,0.1,0.1v-0.1c0.1,0,0.6,0.3,0.6,0.2c0.2,0,0.1-0.1,0.2-0.1c0,0,0,0.1,0,0.2    c0.1,0,0.1-0.1,0.1-0.2c0.1,0,0.1,0.1,0.1,0.2c0,0,0.1,0,0.1,0c0.1,0,0.1-0.2,0.1-0.2c0,0,0.1,0.1,0.2,0c0-0.1,0-0.1,0-0.2    c0.1,0,0.2-0.1,0.3-0.1c0-0.1,0.2-0.2,0.3-0.1c0,0,0.1,0,0.2,0c0.1,0,0.2,0,0.2,0c0-0.1,0.1-0.3,0.2-0.3C6,9.7,6,9.6,6.1,9.6    c0,0,0,0,0.1-0.1c0-0.1,0.1,0,0.1,0v0c0,0,0.1-0.2,0-0.2c0.1-0.1,0-0.2,0.1-0.3c-0.5,0,0-0.2-0.2-0.4c0.1-0.1,0-0.2,0-0.2    c0.1,0,0.1,0,0.1-0.1c0,0,0.1-0.2,0-0.3h0c0,0,0.1-0.1,0.1,0V7.8c-0.1,0-0.3,0-0.3-0.1c-0.1,0-0.3-0.1-0.3-0.2    c0,0-0.1-0.1-0.1-0.1c0-0.1,0-0.2,0.2-0.3c0,0,0-0.1,0-0.2c-0.1,0-0.1,0-0.2,0.1V6.8H5.5c0-0.1,0-0.1,0.1-0.2    c0-0.1-0.2-0.1-0.2-0.1v0h0L5.3,6.5C5.2,6.5,5.1,6.4,5,6.4C5,6.5,5,6.3,4.8,6.3c-0.2,0-0.2-0.1-0.2-0.1C4.5,6.1,4.4,6.3,4.3,6.1    c0,0-0.1,0-0.1,0.1l0,0c0,0-0.1,0-0.1,0c0,0.1,0,0.2-0.1,0.1c0,0.1-0.1,0.1-0.2,0c0,0.2-0.2,0.1-0.2,0h0c0,0.2-0.1,0.1-0.2,0.1    c0,0,0,0.1-0.1,0.1c0,0,0,0.1-0.1,0.1c0,0.1-0.2,0-0.2,0v0H2.7c0,0.1,0,0.2,0,0.2c0,0-0.1,0-0.2,0c0,0,0.1,0.1,0,0.1    C2.4,7,2.4,7.1,2.2,7.3H2.1c0,0,0-0.1-0.1-0.1H1.9c0,0.1,0.1,0.2,0,0.3H1.8c0,0,0,0.1,0,0.1c0,0.1-0.1,0.2-0.1,0.3    c0.2,0.1,0.1,0.3,0.2,0.3c0,0,0,0.1,0.1,0.1c0,0-0.1,0.1-0.2,0.1V8.6z"/>
	</g>
</g>
</svg>